<svg xmlns="http://www.w3.org/2000/svg" viewBox="0 0 1200 630" width="1200" height="630">
  <defs>
    <!-- Backgrounds -->
    <linearGradient id="bgGrad" x1="0%" y1="0%" x2="100%" y2="100%">
      <stop offset="0%"   style="stop-color:#060606"/>
      <stop offset="100%" style="stop-color:#0e0404"/>
    </linearGradient>

    <!-- Accent gradients — red/gold (Bleach palette) -->
    <linearGradient id="barGrad" x1="0%" y1="0%" x2="0%" y2="100%">
      <stop offset="0%"   style="stop-color:#cc1a00"/>
      <stop offset="100%" style="stop-color:#d4a017"/>
    </linearGradient>
    <linearGradient id="accentH" x1="0%" y1="0%" x2="100%" y2="0%">
      <stop offset="0%"   style="stop-color:#cc1a00;stop-opacity:0"/>
      <stop offset="40%"  style="stop-color:#cc1a00;stop-opacity:1"/>
      <stop offset="100%" style="stop-color:#d4a017;stop-opacity:0"/>
    </linearGradient>
    <linearGradient id="slashGrad" x1="0%" y1="0%" x2="0%" y2="100%">
      <stop offset="0%"   style="stop-color:#ff2a00"/>
      <stop offset="100%" style="stop-color:#d4a017"/>
    </linearGradient>
    <linearGradient id="hexStroke" x1="0%" y1="0%" x2="100%" y2="100%">
      <stop offset="0%"   style="stop-color:#cc1a00"/>
      <stop offset="100%" style="stop-color:#d4a017"/>
    </linearGradient>
    <linearGradient id="titleGrad" x1="0%" y1="0%" x2="100%" y2="0%">
      <stop offset="0%"   style="stop-color:#ff2a00"/>
      <stop offset="100%" style="stop-color:#d4a017"/>
    </linearGradient>

    <!-- Glow / blur filters -->
    <filter id="bigGlow" x="-80%" y="-80%" width="260%" height="260%">
      <feGaussianBlur stdDeviation="80"/>
    </filter>
    <filter id="medGlow" x="-60%" y="-60%" width="220%" height="220%">
      <feGaussianBlur stdDeviation="40"/>
    </filter>
    <filter id="slashGlow" x="-20%" y="-5%" width="140%" height="110%">
      <feGaussianBlur stdDeviation="8" result="coloredBlur"/>
      <feMerge><feMergeNode in="coloredBlur"/><feMergeNode in="SourceGraphic"/></feMerge>
    </filter>
    <filter id="hexGlow" x="-35%" y="-35%" width="170%" height="170%">
      <feGaussianBlur stdDeviation="20" result="coloredBlur"/>
      <feMerge><feMergeNode in="coloredBlur"/><feMergeNode in="SourceGraphic"/></feMerge>
    </filter>
    <filter id="softGlow">
      <feGaussianBlur stdDeviation="5" result="coloredBlur"/>
      <feMerge><feMergeNode in="coloredBlur"/><feMergeNode in="SourceGraphic"/></feMerge>
    </filter>
    <filter id="textGlow">
      <feDropShadow dx="0" dy="0" stdDeviation="14" flood-color="#cc1a00" flood-opacity="0.6"/>
    </filter>
    <filter id="goldGlow">
      <feDropShadow dx="0" dy="0" stdDeviation="10" flood-color="#d4a017" flood-opacity="0.5"/>
    </filter>

    <clipPath id="leftClip">
      <rect x="0" y="0" width="510" height="630"/>
    </clipPath>
  </defs>

  <!-- ══════════════════════════════════════════ -->
  <!--  BASE — near-black                         -->
  <!-- ══════════════════════════════════════════ -->
  <rect width="1200" height="630" fill="url(#bgGrad)"/>

  <!-- ══════════════════════════════════════════ -->
  <!--  BLEACH DIAGONAL RED SWEEP                 -->
  <!--  Matches hero-background split             -->
  <!-- ══════════════════════════════════════════ -->
  <!-- Main red zone — right side -->
  <polygon points="560,0 1200,0 1200,630 160,630"
           fill="#300000" opacity="0.95"/>
  <!-- Secondary deeper red layer for richness -->
  <polygon points="700,0 1200,0 1200,630 400,630"
           fill="#1a0000" opacity="0.8"/>

  <!-- Atmospheric red radial — upper right (the "red light source") -->
  <circle cx="1050" cy="80"  r="500" fill="#cc1a00" opacity="0.22" filter="url(#bigGlow)"/>
  <circle cx="1150" cy="400" r="350" fill="#990000" opacity="0.18" filter="url(#bigGlow)"/>

  <!-- Atmospheric dark vignette — left side -->
  <circle cx="0"   cy="315" r="550" fill="#000000" opacity="0.55" filter="url(#bigGlow)"/>
  <circle cx="245" cy="520" r="300" fill="#000000" opacity="0.35" filter="url(#medGlow)"/>

  <!-- Bright red SLASH EDGE — signature Bleach diagonal -->
  <line x1="560" y1="0" x2="160" y2="630"
        stroke="#ff2a00" stroke-width="14" opacity="0.18" filter="url(#medGlow)"/>
  <line x1="560" y1="0" x2="160" y2="630"
        stroke="#ff2a00" stroke-width="5" opacity="0.5" filter="url(#slashGlow)"/>
  <line x1="560" y1="0" x2="160" y2="630"
        stroke="url(#slashGrad)" stroke-width="2.5" opacity="0.9"/>

  <!-- Speed lines — thin parallel streaks (manga action effect) -->
  <g opacity="0.07" stroke="#ff2a00" stroke-width="1">
    <line x1="620" y1="0"  x2="220" y2="630"/>
    <line x1="680" y1="0"  x2="280" y2="630"/>
    <line x1="740" y1="0"  x2="340" y2="630"/>
    <line x1="800" y1="0"  x2="400" y2="630"/>
    <line x1="500" y1="0"  x2="100" y2="630"/>
  </g>

  <!-- ══════════════════════════════════════════ -->
  <!--  REIATSU PARTICLE GRID (left zone)         -->
  <!-- ══════════════════════════════════════════ -->
  <g clip-path="url(#leftClip)" opacity="0.14" fill="#cc1a00">
    <circle cx="40"  cy="40"  r="1.8"/> <circle cx="80"  cy="40"  r="1.8"/> <circle cx="120" cy="40"  r="1.8"/> <circle cx="160" cy="40"  r="1.8"/> <circle cx="200" cy="40"  r="1.8"/> <circle cx="240" cy="40"  r="1.8"/> <circle cx="280" cy="40"  r="1.8"/> <circle cx="320" cy="40"  r="1.8"/> <circle cx="360" cy="40"  r="1.8"/> <circle cx="400" cy="40"  r="1.8"/> <circle cx="440" cy="40"  r="1.8"/> <circle cx="480" cy="40"  r="1.8"/>
    <circle cx="60"  cy="80"  r="1.8"/> <circle cx="100" cy="80"  r="1.8"/> <circle cx="140" cy="80"  r="1.8"/> <circle cx="180" cy="80"  r="1.8"/> <circle cx="220" cy="80"  r="1.8"/> <circle cx="260" cy="80"  r="1.8"/> <circle cx="300" cy="80"  r="1.8"/> <circle cx="340" cy="80"  r="1.8"/> <circle cx="380" cy="80"  r="1.8"/> <circle cx="420" cy="80"  r="1.8"/> <circle cx="460" cy="80"  r="1.8"/> <circle cx="500" cy="80"  r="1.8"/>
    <circle cx="40"  cy="120" r="1.8"/> <circle cx="80"  cy="120" r="1.8"/> <circle cx="120" cy="120" r="1.8"/> <circle cx="160" cy="120" r="1.8"/> <circle cx="200" cy="120" r="1.8"/> <circle cx="240" cy="120" r="1.8"/> <circle cx="280" cy="120" r="1.8"/> <circle cx="320" cy="120" r="1.8"/> <circle cx="360" cy="120" r="1.8"/> <circle cx="400" cy="120" r="1.8"/> <circle cx="440" cy="120" r="1.8"/> <circle cx="480" cy="120" r="1.8"/>
    <circle cx="60"  cy="160" r="1.8"/> <circle cx="100" cy="160" r="1.8"/> <circle cx="140" cy="160" r="1.8"/> <circle cx="180" cy="160" r="1.8"/> <circle cx="220" cy="160" r="1.8"/> <circle cx="260" cy="160" r="1.8"/> <circle cx="300" cy="160" r="1.8"/> <circle cx="340" cy="160" r="1.8"/> <circle cx="380" cy="160" r="1.8"/> <circle cx="420" cy="160" r="1.8"/> <circle cx="460" cy="160" r="1.8"/> <circle cx="500" cy="160" r="1.8"/>
    <circle cx="40"  cy="200" r="1.8"/> <circle cx="80"  cy="200" r="1.8"/> <circle cx="120" cy="200" r="1.8"/> <circle cx="160" cy="200" r="1.8"/> <circle cx="200" cy="200" r="1.8"/> <circle cx="240" cy="200" r="1.8"/> <circle cx="280" cy="200" r="1.8"/> <circle cx="320" cy="200" r="1.8"/> <circle cx="360" cy="200" r="1.8"/> <circle cx="400" cy="200" r="1.8"/> <circle cx="440" cy="200" r="1.8"/> <circle cx="480" cy="200" r="1.8"/>
    <circle cx="60"  cy="240" r="1.8"/> <circle cx="100" cy="240" r="1.8"/> <circle cx="140" cy="240" r="1.8"/> <circle cx="180" cy="240" r="1.8"/> <circle cx="220" cy="240" r="1.8"/> <circle cx="260" cy="240" r="1.8"/> <circle cx="300" cy="240" r="1.8"/> <circle cx="340" cy="240" r="1.8"/> <circle cx="380" cy="240" r="1.8"/> <circle cx="420" cy="240" r="1.8"/> <circle cx="460" cy="240" r="1.8"/> <circle cx="500" cy="240" r="1.8"/>
    <circle cx="40"  cy="280" r="1.8"/> <circle cx="80"  cy="280" r="1.8"/> <circle cx="120" cy="280" r="1.8"/> <circle cx="160" cy="280" r="1.8"/> <circle cx="200" cy="280" r="1.8"/> <circle cx="240" cy="280" r="1.8"/> <circle cx="280" cy="280" r="1.8"/> <circle cx="320" cy="280" r="1.8"/> <circle cx="360" cy="280" r="1.8"/> <circle cx="400" cy="280" r="1.8"/> <circle cx="440" cy="280" r="1.8"/> <circle cx="480" cy="280" r="1.8"/>
    <circle cx="60"  cy="320" r="1.8"/> <circle cx="100" cy="320" r="1.8"/> <circle cx="140" cy="320" r="1.8"/> <circle cx="180" cy="320" r="1.8"/> <circle cx="220" cy="320" r="1.8"/> <circle cx="260" cy="320" r="1.8"/> <circle cx="300" cy="320" r="1.8"/> <circle cx="340" cy="320" r="1.8"/> <circle cx="380" cy="320" r="1.8"/> <circle cx="420" cy="320" r="1.8"/> <circle cx="460" cy="320" r="1.8"/> <circle cx="500" cy="320" r="1.8"/>
    <circle cx="40"  cy="360" r="1.8"/> <circle cx="80"  cy="360" r="1.8"/> <circle cx="120" cy="360" r="1.8"/> <circle cx="160" cy="360" r="1.8"/> <circle cx="200" cy="360" r="1.8"/> <circle cx="240" cy="360" r="1.8"/> <circle cx="280" cy="360" r="1.8"/> <circle cx="320" cy="360" r="1.8"/> <circle cx="360" cy="360" r="1.8"/> <circle cx="400" cy="360" r="1.8"/> <circle cx="440" cy="360" r="1.8"/> <circle cx="480" cy="360" r="1.8"/>
    <circle cx="60"  cy="400" r="1.8"/> <circle cx="100" cy="400" r="1.8"/> <circle cx="140" cy="400" r="1.8"/> <circle cx="180" cy="400" r="1.8"/> <circle cx="220" cy="400" r="1.8"/> <circle cx="260" cy="400" r="1.8"/> <circle cx="300" cy="400" r="1.8"/> <circle cx="340" cy="400" r="1.8"/> <circle cx="380" cy="400" r="1.8"/> <circle cx="420" cy="400" r="1.8"/> <circle cx="460" cy="400" r="1.8"/> <circle cx="500" cy="400" r="1.8"/>
    <circle cx="40"  cy="440" r="1.8"/> <circle cx="80"  cy="440" r="1.8"/> <circle cx="120" cy="440" r="1.8"/> <circle cx="160" cy="440" r="1.8"/> <circle cx="200" cy="440" r="1.8"/> <circle cx="240" cy="440" r="1.8"/> <circle cx="280" cy="440" r="1.8"/> <circle cx="320" cy="440" r="1.8"/> <circle cx="360" cy="440" r="1.8"/> <circle cx="400" cy="440" r="1.8"/> <circle cx="440" cy="440" r="1.8"/> <circle cx="480" cy="440" r="1.8"/>
    <circle cx="60"  cy="480" r="1.8"/> <circle cx="100" cy="480" r="1.8"/> <circle cx="140" cy="480" r="1.8"/> <circle cx="180" cy="480" r="1.8"/> <circle cx="220" cy="480" r="1.8"/> <circle cx="260" cy="480" r="1.8"/> <circle cx="300" cy="480" r="1.8"/> <circle cx="340" cy="480" r="1.8"/> <circle cx="380" cy="480" r="1.8"/> <circle cx="420" cy="480" r="1.8"/> <circle cx="460" cy="480" r="1.8"/> <circle cx="500" cy="480" r="1.8"/>
    <circle cx="40"  cy="520" r="1.8"/> <circle cx="80"  cy="520" r="1.8"/> <circle cx="120" cy="520" r="1.8"/> <circle cx="160" cy="520" r="1.8"/> <circle cx="200" cy="520" r="1.8"/> <circle cx="240" cy="520" r="1.8"/> <circle cx="280" cy="520" r="1.8"/> <circle cx="320" cy="520" r="1.8"/> <circle cx="360" cy="520" r="1.8"/> <circle cx="400" cy="520" r="1.8"/> <circle cx="440" cy="520" r="1.8"/> <circle cx="480" cy="520" r="1.8"/>
    <circle cx="60"  cy="560" r="1.8"/> <circle cx="100" cy="560" r="1.8"/> <circle cx="140" cy="560" r="1.8"/> <circle cx="180" cy="560" r="1.8"/> <circle cx="220" cy="560" r="1.8"/> <circle cx="260" cy="560" r="1.8"/> <circle cx="300" cy="560" r="1.8"/> <circle cx="340" cy="560" r="1.8"/> <circle cx="380" cy="560" r="1.8"/> <circle cx="420" cy="560" r="1.8"/> <circle cx="460" cy="560" r="1.8"/> <circle cx="500" cy="560" r="1.8"/>
    <circle cx="40"  cy="600" r="1.8"/> <circle cx="80"  cy="600" r="1.8"/> <circle cx="120" cy="600" r="1.8"/> <circle cx="160" cy="600" r="1.8"/> <circle cx="200" cy="600" r="1.8"/> <circle cx="240" cy="600" r="1.8"/> <circle cx="280" cy="600" r="1.8"/> <circle cx="320" cy="600" r="1.8"/> <circle cx="360" cy="600" r="1.8"/> <circle cx="400" cy="600" r="1.8"/> <circle cx="440" cy="600" r="1.8"/> <circle cx="480" cy="600" r="1.8"/>
  </g>

  <!-- ══════════════════════════════════════════ -->
  <!--  BORDERS & ACCENT BARS                     -->
  <!-- ══════════════════════════════════════════ -->
  <rect x="0" y="0"   width="8"    height="630" fill="url(#barGrad)"/>
  <rect x="0" y="0"   width="1200" height="3"   fill="url(#accentH)"/>
  <rect x="0" y="627" width="1200" height="3"   fill="url(#accentH)"/>

  <!-- ══════════════════════════════════════════ -->
  <!--  LEFT ZONE — BT HEXAGON (Soul Reaper badge) -->
  <!-- ══════════════════════════════════════════ -->

  <!-- Outer reiatsu ring halos -->
  <polygon points="245,108 382,187 382,347 245,426 108,347 108,187"
           fill="none" stroke="#cc1a00" stroke-width="1.5" opacity="0.12"/>
  <polygon points="245,88  400,177 400,367 245,454  90,367  90,177"
           fill="none" stroke="#d4a017" stroke-width="1"   opacity="0.07"/>

  <!-- Hex red ambient glow -->
  <polygon points="245,128 366,197 366,337 245,406 124,337 124,197"
           fill="#cc1a00" opacity="0.08" filter="url(#hexGlow)"/>

  <!-- Main hexagon body — black with red/gold border -->
  <polygon points="245,128 366,197 366,337 245,406 124,337 124,197"
           fill="#0a0101" stroke="url(#hexStroke)" stroke-width="3.5" opacity="0.97"
           filter="url(#hexGlow)"/>

  <!-- Inner ring highlight -->
  <polygon points="245,148 350,206 350,324 245,382 140,324 140,206"
           fill="none" stroke="#cc1a00" stroke-width="1" opacity="0.18"/>

  <!-- BT letters inside hexagon -->
  <text x="198" y="305" font-family="'Segoe UI', Arial, sans-serif" font-size="112" font-weight="900"
        fill="white" text-anchor="middle" filter="url(#textGlow)" opacity="0.97">B</text>
  <text x="295" y="305" font-family="'Segoe UI', Arial, sans-serif" font-size="112" font-weight="900"
        fill="url(#titleGrad)" text-anchor="middle" filter="url(#goldGlow)" opacity="0.97">T</text>

  <!-- Node corner dots with glow -->
  <circle cx="245" cy="108" r="5" fill="#cc1a00" opacity="0.8" filter="url(#softGlow)"/>
  <circle cx="382" cy="187" r="4" fill="#cc1a00" opacity="0.5"/>
  <circle cx="382" cy="347" r="4" fill="#d4a017" opacity="0.5"/>
  <circle cx="245" cy="426" r="5" fill="#d4a017" opacity="0.8" filter="url(#softGlow)"/>
  <circle cx="108" cy="347" r="4" fill="#d4a017" opacity="0.5"/>
  <circle cx="108" cy="187" r="4" fill="#cc1a00" opacity="0.5"/>

  <!-- Reiatsu tendrils -->
  <line x1="245" y1="108" x2="245" y2="58"  stroke="#cc1a00" stroke-width="1.5" opacity="0.28" stroke-dasharray="4 4"/>
  <line x1="108" y1="187" x2="58"  y2="158" stroke="#cc1a00" stroke-width="1.5" opacity="0.22" stroke-dasharray="4 4"/>
  <line x1="108" y1="347" x2="58"  y2="378" stroke="#d4a017" stroke-width="1.5" opacity="0.22" stroke-dasharray="4 4"/>
  <line x1="245" y1="426" x2="245" y2="476" stroke="#d4a017" stroke-width="1.5" opacity="0.28" stroke-dasharray="4 4"/>

  <!-- Satellite dots -->
  <circle cx="245" cy="52"  r="3" fill="#cc1a00" opacity="0.45"/>
  <circle cx="53"  cy="152" r="3" fill="#cc1a00" opacity="0.35"/>
  <circle cx="53"  cy="382" r="3" fill="#d4a017" opacity="0.35"/>
  <circle cx="245" cy="484" r="3" fill="#d4a017" opacity="0.45"/>

  <!-- ══════════════════════════════════════════ -->
  <!--  RIGHT ZONE — TEXT CONTENT                 -->
  <!-- ══════════════════════════════════════════ -->

  <!-- Subtle dark scrim behind text for readability on the red background -->
  <rect x="520" y="100" width="660" height="300" rx="6" fill="#000000" opacity="0.25"/>

  <!-- Site name -->
  <text x="540" y="215" font-family="'Segoe UI', Arial, sans-serif" font-size="82" font-weight="800"
        fill="#f0f0f0" letter-spacing="-1" filter="url(#softGlow)">Bankai-Tech</text>

  <text x="540" y="300" font-family="'Segoe UI', Arial, sans-serif" font-size="82" font-weight="800"
        fill="url(#titleGrad)" letter-spacing="-1" filter="url(#textGlow)">Docs</text>

  <!-- Gold accent divider -->
  <rect x="540" y="318" width="620" height="3" rx="1.5" fill="url(#accentH)" opacity="0.9"/>

  <!-- Tagline -->
  <text x="540" y="360" font-family="'Segoe UI', Arial, sans-serif" font-size="20" font-weight="400"
        fill="#999999" font-style="italic">"Debugging is when you are a detective in a crime</text>
  <text x="540" y="385" font-family="'Segoe UI', Arial, sans-serif" font-size="20" font-weight="400"
        fill="#999999" font-style="italic"> where you are also the murderer"</text>

  <!-- ══════════════════════════════════════════ -->
  <!--  TECH BADGE STRIP                          -->
  <!-- ══════════════════════════════════════════ -->
  <rect x="500" y="415" width="680" height="130" rx="12" fill="#050000" opacity="0.75"/>
  <rect x="500" y="415" width="680" height="130" rx="12" fill="none" stroke="#cc1a00" stroke-width="1" opacity="0.25"/>

  <text x="528" y="443" font-family="'Segoe UI', Arial, sans-serif" font-size="12"
        fill="#cc1a00" font-weight="600" letter-spacing="2" opacity="0.8">TOPICS COVERED</text>

  <!-- Badge row 1 -->
  <g transform="translate(520, 452)">
    <rect x="0"   y="0" width="88"  height="32" rx="16" fill="#2496ed" opacity="0.15"/>
    <rect x="0"   y="0" width="88"  height="32" rx="16" fill="none" stroke="#2496ed" stroke-width="1.5" opacity="0.65"/>
    <text x="44"  y="21" font-family="'Segoe UI', Arial, sans-serif" font-size="14" font-weight="600" fill="#2496ed"  text-anchor="middle">Docker</text>

    <rect x="100" y="0" width="100" height="32" rx="16" fill="#e57000" opacity="0.15"/>
    <rect x="100" y="0" width="100" height="32" rx="16" fill="none" stroke="#e57000" stroke-width="1.5" opacity="0.65"/>
    <text x="150" y="21" font-family="'Segoe UI', Arial, sans-serif" font-size="14" font-weight="600" fill="#e57000" text-anchor="middle">Proxmox</text>

    <rect x="212" y="0" width="110" height="32" rx="16" fill="#0082c9" opacity="0.15"/>
    <rect x="212" y="0" width="110" height="32" rx="16" fill="none" stroke="#0082c9" stroke-width="1.5" opacity="0.65"/>
    <text x="267" y="21" font-family="'Segoe UI', Arial, sans-serif" font-size="14" font-weight="600" fill="#4db8ff" text-anchor="middle">Nextcloud</text>

    <rect x="334" y="0" width="100" height="32" rx="16" fill="#0078d4" opacity="0.15"/>
    <rect x="334" y="0" width="100" height="32" rx="16" fill="none" stroke="#0078d4" stroke-width="1.5" opacity="0.65"/>
    <text x="384" y="21" font-family="'Segoe UI', Arial, sans-serif" font-size="14" font-weight="600" fill="#0078d4" text-anchor="middle">Windows</text>

    <rect x="446" y="0" width="80"  height="32" rx="16" fill="#009900" opacity="0.15"/>
    <rect x="446" y="0" width="80"  height="32" rx="16" fill="none" stroke="#009900" stroke-width="1.5" opacity="0.65"/>
    <text x="486" y="21" font-family="'Segoe UI', Arial, sans-serif" font-size="14" font-weight="600" fill="#4caf50" text-anchor="middle">Nginx</text>

    <rect x="538" y="0" width="90"  height="32" rx="16" fill="#7b2fbe" opacity="0.15"/>
    <rect x="538" y="0" width="90"  height="32" rx="16" fill="none" stroke="#7b2fbe" stroke-width="1.5" opacity="0.65"/>
    <text x="583" y="21" font-family="'Segoe UI', Arial, sans-serif" font-size="14" font-weight="600" fill="#c084fc" text-anchor="middle">Jellyfin</text>
  </g>

  <!-- Badge row 2 -->
  <g transform="translate(520, 495)">
    <rect x="0"   y="0" width="120" height="32" rx="16" fill="#cc1a00" opacity="0.12"/>
    <rect x="0"   y="0" width="120" height="32" rx="16" fill="none" stroke="#cc1a00" stroke-width="1.5" opacity="0.6"/>
    <text x="60"  y="21" font-family="'Segoe UI', Arial, sans-serif" font-size="14" font-weight="600" fill="#ff4422" text-anchor="middle">Networking</text>

    <rect x="132" y="0" width="100" height="32" rx="16" fill="#c0765a" opacity="0.15"/>
    <rect x="132" y="0" width="100" height="32" rx="16" fill="none" stroke="#c0765a" stroke-width="1.5" opacity="0.65"/>
    <text x="182" y="21" font-family="'Segoe UI', Arial, sans-serif" font-size="14" font-weight="600" fill="#e8a87c" text-anchor="middle">MariaDB</text>

    <rect x="244" y="0" width="100" height="32" rx="16" fill="#0559c9" opacity="0.15"/>
    <rect x="244" y="0" width="100" height="32" rx="16" fill="none" stroke="#0559c9" stroke-width="1.5" opacity="0.65"/>
    <text x="294" y="21" font-family="'Segoe UI', Arial, sans-serif" font-size="14" font-weight="600" fill="#6ea8fe" text-anchor="middle">Ubiquiti</text>

    <rect x="356" y="0" width="90"  height="32" rx="16" fill="#6e5494" opacity="0.15"/>
    <rect x="356" y="0" width="90"  height="32" rx="16" fill="none" stroke="#6e5494" stroke-width="1.5" opacity="0.65"/>
    <text x="401" y="21" font-family="'Segoe UI', Arial, sans-serif" font-size="14" font-weight="600" fill="#c084fc" text-anchor="middle">GitHub</text>

    <rect x="458" y="0" width="90"  height="32" rx="16" fill="#d4a017" opacity="0.12"/>
    <rect x="458" y="0" width="90"  height="32" rx="16" fill="none" stroke="#d4a017" stroke-width="1.5" opacity="0.55"/>
    <text x="503" y="21" font-family="'Segoe UI', Arial, sans-serif" font-size="14" font-weight="600" fill="#d4a017" text-anchor="middle">&amp; more…</text>
  </g>

  <!-- ══════════════════════════════════════════ -->
  <!--  URL — red/gold gradient                   -->
  <!-- ══════════════════════════════════════════ -->
  <text x="1170" y="608" font-family="'Segoe UI', Arial, sans-serif" font-size="19" font-weight="600"
        fill="url(#titleGrad)" text-anchor="end" opacity="0.88">docs.bankai-tech.com</text>
</svg>
